<svg width="207" height="58" viewBox="0 0 207 58" fill="none" xmlns="http://www.w3.org/2000/svg">
<path d="M57.96 23.04V37H55.16V31.06H49.18V37H46.38V23.04H49.18V28.78H55.16V23.04H57.96ZM71.0159 31.22C71.0159 31.62 70.9893 31.98 70.9359 32.3H62.8359C62.9026 33.1 63.1826 33.7267 63.6759 34.18C64.1693 34.6333 64.7759 34.86 65.4959 34.86C66.5359 34.86 67.2759 34.4133 67.7159 33.52H70.7359C70.4159 34.5867 69.8026 35.4667 68.8959 36.16C67.9893 36.84 66.8759 37.18 65.5559 37.18C64.4893 37.18 63.5293 36.9467 62.6759 36.48C61.8359 36 61.1759 35.3267 60.6959 34.46C60.2293 33.5933 59.9959 32.5933 59.9959 31.46C59.9959 30.3133 60.2293 29.3067 60.6959 28.44C61.1626 27.5733 61.8159 26.9067 62.6559 26.44C63.4959 25.9733 64.4626 25.74 65.5559 25.74C66.6093 25.74 67.5493 25.9667 68.3759 26.42C69.2159 26.8733 69.8626 27.52 70.3159 28.36C70.7826 29.1867 71.0159 30.14 71.0159 31.22ZM68.1159 30.42C68.1026 29.7 67.8426 29.1267 67.3359 28.7C66.8293 28.26 66.2093 28.04 65.4759 28.04C64.7826 28.04 64.1959 28.2533 63.7159 28.68C63.2493 29.0933 62.9626 29.6733 62.8559 30.42H68.1159ZM86.8197 25.76C88.1797 25.76 89.273 26.18 90.0997 27.02C90.9397 27.8467 91.3597 29.0067 91.3597 30.5V37H88.5597V30.88C88.5597 30.0133 88.3397 29.3533 87.8997 28.9C87.4597 28.4333 86.8597 28.2 86.0997 28.2C85.3397 28.2 84.733 28.4333 84.2797 28.9C83.8397 29.3533 83.6197 30.0133 83.6197 30.88V37H80.8197V30.88C80.8197 30.0133 80.5997 29.3533 80.1597 28.9C79.7197 28.4333 79.1197 28.2 78.3597 28.2C77.5864 28.2 76.973 28.4333 76.5197 28.9C76.0797 29.3533 75.8597 30.0133 75.8597 30.88V37H73.0597V25.92H75.8597V27.26C76.2197 26.7933 76.6797 26.4267 77.2397 26.16C77.813 25.8933 78.4397 25.76 79.1197 25.76C79.9864 25.76 80.7597 25.9467 81.4397 26.32C82.1197 26.68 82.6464 27.2 83.0197 27.88C83.3797 27.24 83.8997 26.7267 84.5797 26.34C85.273 25.9533 86.0197 25.76 86.8197 25.76ZM93.2967 31.42C93.2967 30.3 93.5167 29.3067 93.9567 28.44C94.4101 27.5733 95.0167 26.9067 95.7767 26.44C96.5501 25.9733 97.4101 25.74 98.3567 25.74C99.1834 25.74 99.9034 25.9067 100.517 26.24C101.143 26.5733 101.643 26.9933 102.017 27.5V25.92H104.837V37H102.017V35.38C101.657 35.9 101.157 36.3333 100.517 36.68C99.8901 37.0133 99.1634 37.18 98.3367 37.18C97.4034 37.18 96.5501 36.94 95.7767 36.46C95.0167 35.98 94.4101 35.3067 93.9567 34.44C93.5167 33.56 93.2967 32.5533 93.2967 31.42ZM102.017 31.46C102.017 30.78 101.883 30.2 101.617 29.72C101.35 29.2267 100.99 28.8533 100.537 28.6C100.083 28.3333 99.5967 28.2 99.0767 28.2C98.5567 28.2 98.0767 28.3267 97.6367 28.58C97.1967 28.8333 96.8367 29.2067 96.5567 29.7C96.2901 30.18 96.1567 30.7533 96.1567 31.42C96.1567 32.0867 96.2901 32.6733 96.5567 33.18C96.8367 33.6733 97.1967 34.0533 97.6367 34.32C98.0901 34.5867 98.5701 34.72 99.0767 34.72C99.5967 34.72 100.083 34.5933 100.537 34.34C100.99 34.0733 101.35 33.7 101.617 33.22C101.883 32.7267 102.017 32.14 102.017 31.46ZM110.831 28.22V33.58C110.831 33.9533 110.918 34.2267 111.091 34.4C111.278 34.56 111.585 34.64 112.011 34.64H113.311V37H111.551C109.191 37 108.011 35.8533 108.011 33.56V28.22H106.691V25.92H108.011V23.18H110.831V25.92H113.311V28.22H110.831ZM120.245 37.18C119.179 37.18 118.219 36.9467 117.365 36.48C116.512 36 115.839 35.3267 115.345 34.46C114.865 33.5933 114.625 32.5933 114.625 31.46C114.625 30.3267 114.872 29.3267 115.365 28.46C115.872 27.5933 116.559 26.9267 117.425 26.46C118.292 25.98 119.259 25.74 120.325 25.74C121.392 25.74 122.359 25.98 123.225 26.46C124.092 26.9267 124.772 27.5933 125.265 28.46C125.772 29.3267 126.025 30.3267 126.025 31.46C126.025 32.5933 125.765 33.5933 125.245 34.46C124.739 35.3267 124.045 36 123.165 36.48C122.299 36.9467 121.325 37.18 120.245 37.18ZM120.245 34.74C120.752 34.74 121.225 34.62 121.665 34.38C122.119 34.1267 122.479 33.7533 122.745 33.26C123.012 32.7667 123.145 32.1667 123.145 31.46C123.145 30.4067 122.865 29.6 122.305 29.04C121.759 28.4667 121.085 28.18 120.285 28.18C119.485 28.18 118.812 28.4667 118.265 29.04C117.732 29.6 117.465 30.4067 117.465 31.46C117.465 32.5133 117.725 33.3267 118.245 33.9C118.779 34.46 119.445 34.74 120.245 34.74ZM130.879 27.52C131.239 27.0133 131.733 26.5933 132.359 26.26C132.999 25.9133 133.726 25.74 134.539 25.74C135.486 25.74 136.339 25.9733 137.099 26.44C137.873 26.9067 138.479 27.5733 138.919 28.44C139.373 29.2933 139.599 30.2867 139.599 31.42C139.599 32.5533 139.373 33.56 138.919 34.44C138.479 35.3067 137.873 35.98 137.099 36.46C136.339 36.94 135.486 37.18 134.539 37.18C133.726 37.18 133.006 37.0133 132.379 36.68C131.766 36.3467 131.266 35.9267 130.879 35.42V42.28H128.079V25.92H130.879V27.52ZM136.739 31.42C136.739 30.7533 136.599 30.18 136.319 29.7C136.053 29.2067 135.693 28.8333 135.239 28.58C134.799 28.3267 134.319 28.2 133.799 28.2C133.293 28.2 132.813 28.3333 132.359 28.6C131.919 28.8533 131.559 29.2267 131.279 29.72C131.013 30.2133 130.879 30.7933 130.879 31.46C130.879 32.1267 131.013 32.7067 131.279 33.2C131.559 33.6933 131.919 34.0733 132.359 34.34C132.813 34.5933 133.293 34.72 133.799 34.72C134.319 34.72 134.799 34.5867 135.239 34.32C135.693 34.0533 136.053 33.6733 136.319 33.18C136.599 32.6867 136.739 32.1 136.739 31.42ZM151.934 31.22C151.934 31.62 151.907 31.98 151.854 32.3H143.754C143.821 33.1 144.101 33.7267 144.594 34.18C145.087 34.6333 145.694 34.86 146.414 34.86C147.454 34.86 148.194 34.4133 148.634 33.52H151.654C151.334 34.5867 150.721 35.4667 149.814 36.16C148.907 36.84 147.794 37.18 146.474 37.18C145.407 37.18 144.447 36.9467 143.594 36.48C142.754 36 142.094 35.3267 141.614 34.46C141.147 33.5933 140.914 32.5933 140.914 31.46C140.914 30.3133 141.147 29.3067 141.614 28.44C142.081 27.5733 142.734 26.9067 143.574 26.44C144.414 25.9733 145.381 25.74 146.474 25.74C147.527 25.74 148.467 25.9667 149.294 26.42C150.134 26.8733 150.781 27.52 151.234 28.36C151.701 29.1867 151.934 30.14 151.934 31.22ZM149.034 30.42C149.021 29.7 148.761 29.1267 148.254 28.7C147.747 28.26 147.127 28.04 146.394 28.04C145.701 28.04 145.114 28.2533 144.634 28.68C144.167 29.0933 143.881 29.6733 143.774 30.42H149.034ZM153.258 31.42C153.258 30.3 153.478 29.3067 153.918 28.44C154.371 27.5733 154.984 26.9067 155.758 26.44C156.531 25.9733 157.391 25.74 158.338 25.74C159.058 25.74 159.744 25.9 160.398 26.22C161.051 26.5267 161.571 26.94 161.958 27.46V22.2H164.798V37H161.958V35.36C161.611 35.9067 161.124 36.3467 160.498 36.68C159.871 37.0133 159.144 37.18 158.318 37.18C157.384 37.18 156.531 36.94 155.758 36.46C154.984 35.98 154.371 35.3067 153.918 34.44C153.478 33.56 153.258 32.5533 153.258 31.42ZM161.978 31.46C161.978 30.78 161.844 30.2 161.578 29.72C161.311 29.2267 160.951 28.8533 160.498 28.6C160.044 28.3333 159.558 28.2 159.038 28.2C158.518 28.2 158.038 28.3267 157.598 28.58C157.158 28.8333 156.798 29.2067 156.518 29.7C156.251 30.18 156.118 30.7533 156.118 31.42C156.118 32.0867 156.251 32.6733 156.518 33.18C156.798 33.6733 157.158 34.0533 157.598 34.32C158.051 34.5867 158.531 34.72 159.038 34.72C159.558 34.72 160.044 34.5933 160.498 34.34C160.951 34.0733 161.311 33.7 161.578 33.22C161.844 32.7267 161.978 32.14 161.978 31.46ZM168.952 24.6C168.459 24.6 168.046 24.4467 167.712 24.14C167.392 23.82 167.232 23.4267 167.232 22.96C167.232 22.4933 167.392 22.1067 167.712 21.8C168.046 21.48 168.459 21.32 168.952 21.32C169.446 21.32 169.852 21.48 170.172 21.8C170.506 22.1067 170.672 22.4933 170.672 22.96C170.672 23.4267 170.506 23.82 170.172 24.14C169.852 24.4467 169.446 24.6 168.952 24.6ZM170.332 25.92V37H167.532V25.92H170.332ZM172.379 31.42C172.379 30.3 172.599 29.3067 173.039 28.44C173.492 27.5733 174.099 26.9067 174.859 26.44C175.632 25.9733 176.492 25.74 177.439 25.74C178.265 25.74 178.985 25.9067 179.599 26.24C180.225 26.5733 180.725 26.9933 181.099 27.5V25.92H183.919V37H181.099V35.38C180.739 35.9 180.239 36.3333 179.599 36.68C178.972 37.0133 178.245 37.18 177.419 37.18C176.485 37.18 175.632 36.94 174.859 36.46C174.099 35.98 173.492 35.3067 173.039 34.44C172.599 33.56 172.379 32.5533 172.379 31.42ZM181.099 31.46C181.099 30.78 180.965 30.2 180.699 29.72C180.432 29.2267 180.072 28.8533 179.619 28.6C179.165 28.3333 178.679 28.2 178.159 28.2C177.639 28.2 177.159 28.3267 176.719 28.58C176.279 28.8333 175.919 29.2067 175.639 29.7C175.372 30.18 175.239 30.7533 175.239 31.42C175.239 32.0867 175.372 32.6733 175.639 33.18C175.919 33.6733 176.279 34.0533 176.719 34.32C177.172 34.5867 177.652 34.72 178.159 34.72C178.679 34.72 179.165 34.5933 179.619 34.34C180.072 34.0733 180.432 33.7 180.699 33.22C180.965 32.7267 181.099 32.14 181.099 31.46Z" fill="#F24055"/>
<path fill-rule="evenodd" clip-rule="evenodd" d="M27.3428 13.5324C27.3428 14.2592 29.2096 15.7043 30.1487 15.7043C31.2101 15.7043 31.0524 15.1361 29.6721 13.9853C28.3346 12.8699 27.3428 12.677 27.3428 13.5324ZM23.7051 15.9729C22.8985 16.1817 22.8348 16.5372 23.4888 17.1853C24.5081 18.1954 26.9495 17.508 26.9495 16.211C26.9495 15.7117 25.2078 15.5839 23.7051 15.9729ZM27.9397 17.2519C27.5929 17.8077 28.7896 19.8915 29.8518 20.5809C30.7449 21.1609 32.0619 21.0264 32.0619 20.3557C32.0619 19.8568 29.1018 16.8735 28.6067 16.8735C28.3696 16.8735 28.0695 17.0438 27.9397 17.2519ZM24.9785 20.8682C23.6528 23.0218 23.407 26.032 24.5569 26.032C25.3269 26.032 26.6215 23.3842 26.8551 21.3316C27.0172 19.9067 26.9377 19.6016 26.4048 19.6016C26.0493 19.6016 25.4075 20.1717 24.9785 20.8682ZM26.4029 21.6285C26.0993 23.1317 24.9848 25.4474 24.5644 25.4474C24.3835 25.4474 24.5766 24.7023 24.9938 23.7911C25.4111 22.8799 25.7564 21.6422 25.7611 21.04C25.7666 20.344 25.9274 20.042 26.2027 20.2103C26.4528 20.3635 26.5374 20.9625 26.4029 21.6285ZM19.1228 26.3192C15.8839 29.9273 14.9716 31.8911 15.0007 35.1905C15.0707 43.0848 23.547 48.3581 30.6717 44.9402C36.2277 42.2749 38.5712 35.7958 35.8895 30.5138C35.291 29.3349 33.7164 27.2304 32.3903 25.8372L29.9796 23.3039L31.8315 25.8372C36.6418 32.4176 36.9663 36.6839 32.988 41.0477C29.2611 45.1359 22.836 45.2197 19.124 41.2289C17.0566 39.0059 16.3295 37.1871 16.3405 34.2661C16.3507 31.667 16.917 30.4219 20.1689 25.852C21.0895 24.5577 21.7974 23.5023 21.742 23.5066C21.6861 23.5109 20.5075 24.7767 19.1228 26.3192ZM27.5433 27.7791C26.9295 28.7636 29.7775 30.6058 30.8743 29.9339C31.5043 29.5481 31.3438 28.6763 30.5872 28.3715C28.9555 27.7145 27.7325 27.4763 27.5433 27.7791ZM21.235 28.3906C22.2166 29.1264 24.8935 29.8517 25.6144 29.5777C25.916 29.4631 26.163 29.5391 26.163 29.7465C26.163 30.4936 22.7707 30.1561 21.6727 29.3002C20.5307 28.4097 19.8401 28.5637 20.6479 29.5282C21.3015 30.3085 23.7153 31.0064 25.1869 30.8408C26.0564 30.743 26.3923 30.4799 26.4862 29.8236C26.5861 29.1264 26.3179 28.8166 25.2207 28.3622C24.4551 28.0453 23.0708 27.7912 22.1446 27.7982C20.5681 27.8099 20.5099 27.8473 21.235 28.3906ZM27.9095 32.1101C27.4513 32.8448 28.7585 33.71 30.645 33.9204C32.2526 34.1001 32.4552 34.0369 32.4552 33.3553C32.4552 32.0447 28.6075 30.9909 27.9095 32.1101ZM31.7882 32.8148C32.4953 33.5155 31.9494 33.498 29.899 32.7536L27.9327 32.04L29.6516 32.2204C30.597 32.3198 31.5585 32.5872 31.7882 32.8148Z" fill="#F33631"/>
<path d="M20.3258 40.1087C18.3758 38.1441 17.6133 35.9497 18.0033 33.4264L18.269 31.7067L21.0255 31.8577C23.532 31.9956 24.0096 32.1664 26.2945 33.744C28.6706 35.3844 28.9534 35.4788 31.4903 35.4772C34.1508 35.4753 34.1716 35.4834 33.9344 36.4477C33.5244 38.1138 32.7016 39.3944 31.2387 40.6405C27.9246 43.4646 23.4392 43.2461 20.3258 40.1087Z" fill="#BE273A"/>
</svg>
