<svg width="147" height="214" viewBox="0 0 147 214" fill="none" xmlns="http://www.w3.org/2000/svg">
<path d="M0 136.77C1.36156e-05 101.924 54.4641 0.0262885 70.8561 0.0262885C87.2482 0.0262885 147 92.949 147 136.77C147 180.592 112.382 215.995 69.7986 213.854C29.2057 211.813 -1.36156e-05 171.616 0 136.77Z" fill="#FF4D4D"/>
<path d="M126.906 113.54C98.8813 -4.72544 54.4641 0.0262885 70.8561 0.0262885C87.2482 0.0262885 147 92.949 147 136.77C147 180.592 112.382 215.995 69.7986 213.854C69.1952 213.824 68.6284 213.798 68.0975 213.777C58.4959 213.395 60.5681 214.433 68.0975 213.777C88.1624 212.03 146.982 198.257 126.906 113.54Z" fill="#CC295F"/>
</svg>
